<svg xmlns="http://www.w3.org/2000/svg" viewBox="0 0 52.59 120.39">
<defs>
<style>.cls-1{fill:#FF0000;}</style>
</defs>
<title>Resurs 1</title>
<g id="Lager_2" data-name="Lager 2">
<g id="Gubbe">
<path class="cls-1" d="M52.15,48c0-1-6-12-9-16-2.63-3.51-8.24-3-9-3-7,0-5-8-5-8h-8s2,8-5,8c-.88,0-6,0-10,6-2.77,4.16-7,16-6,19,2,2,9,2,12,3,1,3,0,11,0,14,0,0-2,10-2,14s8,18,8,20-1,12,1,14,6,2,7-1c.63-1.9,2-12,1-14s-1-2-3-4c-1.58-1.58-4-10-4-13,1-4,3-7,4-9,1-1,1.66-2.1,3-2,2,1,2,5,3,9l1,14c0,2-1,4,0,7,.89,2.68,5.76,3.48,8-1,3-6-2-5-2-6s2-14,2-16c0-1.61.71-5.29,1-9,.14-1.82,0-3.88,0-4s0-2,0-2c0-3-1-8.45-1-11,0-2.1.49-8.61.78-13.35A1.05,1.05,0,0,1,41.76,43c2.63,2.9,3.82,6.42,4.39,7,1,1,.37,14.74,1,16a3.48,3.48,0,0,0,5,1C53.15,66,52.15,49,52.15,48Zm-44,1L11,42.62c-.16,2.77.35,4.37.16,7.38Z"/>
<circle class="cls-1" cx="24.65" cy="13.5" r="13.5"/>
</g>
</g>
</svg>